# xmcd
#
# Track frame offsets: 
#        150
#        19830
#        39262
#        58175
#        80012
#        98180
#        119142
#        136697
#        160425
#        180912
#
# Disc length: 2758 seconds
#
# Revision: 0
# Processed by: cddbd v1.5.2PL0 Copyright (c) Steve Scherf et al.
# Submitted via: ExactAudioCopy v0.99pb4
#
DISCID=800ac40a
DTITLE=Peter Hedelund - Et vækkelsesfolk stormer frem
DYEAR=1996
DGENRE=Gospel
TTITLE0=Alt som er født af dig
TTITLE1=Et vækkelsesfolk stormer frem
TTITLE2=Kom sæt mig i brand
TTITLE3=Værdig, værdig
TTITLE4=Et frimodigt folk gå ud
TTITLE5=Kom og gør mig fuld af dig
TTITLE6=Du er Konge
TTITLE7=Lov og ære
TTITLE8=Vi vil søge dit nærvær, Gud
TTITLE9=Vi bøjer os ned
EXTD=
EXTT0=
EXTT1=
EXTT2=
EXTT3=
EXTT4=
EXTT5=
EXTT6=
EXTT7=
EXTT8=
EXTT9=
PLAYORDER=
